<svg height="1240" viewBox="0 0 1240 1240" width="1240" xmlns="http://www.w3.org/2000/svg"><g fill="none" fill-rule="evenodd" transform="translate(290 290)"><path d="m607.218868 0h-550.8293468c-30.0858726 0-56.3895212 21.6618911-56.3895212 51.4040115v552.0343835c0 29.914041 26.3036486 56.561605 56.3895212 56.561605h550.6574278c30.257792 0 52.952099-26.819484 52.952099-56.561605v-552.0343835c.170956-29.7421204-22.694307-51.4040115-52.78018-51.4040115z" fill-rule="nonzero" stroke="#979797" stroke-width="50"/><g fill="#979797"><path d="m456.386905 550v-160.82c0-38.528-13.761905-64.844-47.994643-64.844-26.147619 0-41.629762 17.716-48.510714 34.916-2.580358 6.192-3.268453 14.62-3.268453 23.22v167.528h-94.613095v-294.12h94.613095v40.936c13.761905-19.608 35.264881-47.816 85.32381-47.816 62.100595 0 109.063095 40.936 109.063095 129.172v171.828z"/><path d="m204 550h-94v-294h94z"/><path d="m160.243655 211h-.683587c-30.077834 0-49.560068-22.425424-49.560068-50.5 0-28.588136 19.994924-50.5 50.756345-50.5s49.560068 21.740678 50.243655 50.5c0 28.074576-19.482234 50.5-50.756345 50.5z"/></g></g></svg>